<svg width="19" height="19" viewBox="0 0 19 19" fill="none" xmlns="http://www.w3.org/2000/svg">
<path fill-rule="evenodd" clip-rule="evenodd" d="M9.5 18C14.1944 18 18 14.1944 18 9.5C18 4.80558 14.1944 1 9.5 1C4.80558 1 1 4.80558 1 9.5C1 14.1944 4.80558 18 9.5 18ZM9.5 19C14.7467 19 19 14.7467 19 9.5C19 4.25329 14.7467 0 9.5 0C4.25329 0 0 4.25329 0 9.5C0 14.7467 4.25329 19 9.5 19Z" fill="black"/>
<path fill-rule="evenodd" clip-rule="evenodd" d="M4.68571 6.61116C4.90047 6.43757 5.21529 6.47095 5.38887 6.68571L9.04147 11.2046L12.6941 6.68571C12.8677 6.47095 13.1825 6.43757 13.3972 6.61116C13.612 6.78475 13.6454 7.09957 13.4718 7.31433L9.43033 12.3143C9.3354 12.4318 9.19248 12.5 9.04147 12.5C8.89046 12.5 8.74754 12.4318 8.65261 12.3143L4.61116 7.31433C4.43757 7.09957 4.47095 6.78475 4.68571 6.61116Z" fill="black"/>
</svg>
