<svg width="96" height="77" viewBox="0 0 96 77" fill="none" xmlns="http://www.w3.org/2000/svg">
<path fill-rule="evenodd" clip-rule="evenodd" d="M41.433 3.56069C29.197 3.56069 19.2776 13.1258 19.2776 24.9248V26.7052H15.8928C9.60481 26.7052 4.50739 31.6205 4.50739 37.684C4.50739 43.7474 9.60481 48.6627 15.8928 48.6627V52.2234C7.56547 52.2234 0.814819 45.7139 0.814819 37.684C0.814819 29.7322 7.43457 23.2715 15.6499 23.1463C16.5956 10.2108 27.7777 0 41.433 0C50.7468 0 58.9075 4.75085 63.4552 11.869H69.1273C74.9054 11.869 79.5896 16.3858 79.5896 21.9576C79.5896 22.3587 79.5652 22.7548 79.5177 23.1445H80.5127C88.84 23.1445 95.5907 29.654 95.5907 37.684C95.5907 45.7139 88.84 52.2234 80.5127 52.2234V48.6627C86.8007 48.6627 91.8981 43.7474 91.8981 37.684C91.8981 31.6205 86.8007 26.7052 80.5127 26.7052H74.4947L75.4531 24.2888C75.7393 23.5672 75.897 22.7822 75.897 21.9576C75.897 18.3523 72.8661 15.4297 69.1273 15.4297H61.3155L60.7871 14.5179C56.9957 7.97684 49.7479 3.56069 41.433 3.56069Z" fill="#8D999F"/>
<path fill-rule="evenodd" clip-rule="evenodd" d="M24.063 54.2012C21.8629 55.8642 22.3604 59.2012 24.9573 60.199L26.1222 60.6467C27.9237 61.3389 28.8411 63.2759 28.2039 65.042L27.7918 66.1842C26.8733 68.7301 29.1628 71.278 31.9069 70.7636L33.1379 70.5329C35.0415 70.176 36.8992 71.3272 37.3534 73.1452L37.6471 74.3209C38.3018 76.9415 41.6564 77.8913 43.6765 76.028L44.5827 75.1921C45.9841 73.8995 48.1923 73.8995 49.5937 75.1921L50.4999 76.028C52.52 77.8913 55.8745 76.9415 56.5293 74.3209L56.823 73.1452C57.2771 71.3272 59.1348 70.176 61.0385 70.5329L62.2695 70.7636C65.0135 71.278 67.3031 68.7301 66.3846 66.1842L65.9725 65.042C65.3353 63.2759 66.2526 61.3389 68.0541 60.6467L69.2191 60.199C71.8159 59.2012 72.3135 55.8642 70.1134 54.2012L69.1264 53.4553C67.6001 52.3016 67.2859 50.1939 68.4133 48.6724L69.1423 47.6885C70.7675 45.4952 69.3151 42.4285 66.5319 42.1766L65.2833 42.0636C63.3525 41.8888 61.9065 40.2795 62.0018 38.4118L62.0635 37.204C62.201 34.5117 59.2598 32.689 56.7772 33.928L55.6634 34.4838C53.9412 35.3434 51.8224 34.7435 50.8554 33.1225L50.2301 32.0743C48.8363 29.7377 45.3401 29.7377 43.9462 32.0743L43.321 33.1225C42.354 34.7435 40.2352 35.3434 38.5129 34.4838L37.3992 33.928C34.9166 32.689 31.9754 34.5117 32.1129 37.204L32.1745 38.4118C32.2699 40.2795 30.8238 41.8888 28.893 42.0636L27.6445 42.1766C24.8613 42.4285 23.4089 45.4952 25.0341 47.6885L25.7631 48.6724C26.8905 50.1939 26.5763 52.3016 25.05 53.4553L24.063 54.2012ZM28.4244 46.8388L27.6954 45.8549C27.6408 45.7812 27.6288 45.7288 27.6257 45.6903C27.6218 45.6421 27.6305 45.58 27.6614 45.5148C27.6923 45.4496 27.7353 45.4025 27.7756 45.3738C27.8078 45.3509 27.8567 45.3253 27.9502 45.3168L29.1987 45.2038C32.8718 44.8713 35.6228 41.8099 35.4414 38.2567L35.3797 37.0489C35.3751 36.9585 35.3945 36.9081 35.4134 36.8741C35.4371 36.8316 35.4793 36.7838 35.5418 36.7451C35.6044 36.7063 35.667 36.6891 35.7169 36.686C35.7569 36.6835 35.8124 36.6875 35.8958 36.7291L37.0095 37.2849C40.2859 38.9201 44.3167 37.7788 46.1562 34.6951L46.7815 33.6469C46.8283 33.5685 46.8728 33.5362 46.9078 33.5174C46.9516 33.494 47.0138 33.4758 47.0882 33.4758C47.1625 33.4758 47.2248 33.494 47.2686 33.5174C47.3036 33.5362 47.3481 33.5685 47.3949 33.6469L48.0202 34.6951C49.8597 37.7788 53.8904 38.9201 57.1669 37.2849L58.2806 36.7291C58.3639 36.6875 58.4195 36.6835 58.4594 36.686C58.5094 36.6891 58.572 36.7063 58.6345 36.7451C58.6971 36.7838 58.7393 36.8316 58.763 36.8741C58.7819 36.9081 58.8013 36.9585 58.7966 37.0489L58.735 38.2567C58.5535 41.8098 61.3045 44.8713 64.9776 45.2038L66.2262 45.3168C66.3196 45.3253 66.3686 45.3509 66.4008 45.3738C66.4411 45.4025 66.4841 45.4496 66.515 45.5148C66.5459 45.58 66.5546 45.6421 66.5507 45.6903C66.5475 45.7288 66.5356 45.7812 66.481 45.8549L65.752 46.8388C63.6072 49.7333 64.205 53.743 67.1086 55.9376L68.0956 56.6836C68.1695 56.7394 68.1963 56.7865 68.2105 56.8226C68.2284 56.8677 68.2381 56.9297 68.2276 57.0007C68.217 57.0716 68.1895 57.1285 68.1592 57.1669C68.135 57.1977 68.0955 57.2356 68.0083 57.2691L66.8434 57.7167C63.4162 59.0336 61.6711 62.7184 62.8833 66.0784L63.2953 67.2205C63.3262 67.306 63.3223 67.3596 63.3141 67.3973C63.3038 67.4446 63.2772 67.5019 63.2286 67.5561C63.1799 67.6102 63.1249 67.6437 63.0778 67.6603C63.0402 67.6735 62.9857 67.6848 62.8936 67.6675L61.6626 67.4368C58.0412 66.7579 54.5071 68.948 53.6431 72.4066L53.3494 73.5822C53.3274 73.6702 53.2941 73.7132 53.266 73.7407C53.2308 73.7751 53.1764 73.8095 53.1051 73.8297C53.0337 73.8499 52.9687 73.8493 52.9198 73.8387C52.8808 73.8303 52.8286 73.8114 52.7608 73.7488L51.8546 72.913C49.1886 70.4539 44.9877 70.4539 42.3218 72.913L41.4156 73.7488C41.3477 73.8114 41.2956 73.8303 41.2565 73.8387C41.2077 73.8493 41.1426 73.8499 41.0713 73.8297C41 73.8095 40.9455 73.7751 40.9104 73.7407C40.8823 73.7132 40.849 73.6702 40.827 73.5822L40.5333 72.4066C39.6692 68.948 36.1352 66.7579 32.5138 67.4368L31.2828 67.6675C31.1906 67.6848 31.1362 67.6735 31.0986 67.6603C31.0515 67.6437 30.9965 67.6102 30.9478 67.5561C30.8991 67.5019 30.8726 67.4446 30.8623 67.3973C30.8541 67.3596 30.8502 67.306 30.881 67.2205L31.2931 66.0784C32.5053 62.7184 30.7602 59.0336 27.333 57.7167L26.1681 57.2691C26.0809 57.2356 26.0414 57.1977 26.0172 57.1669C25.9869 57.1285 25.9594 57.0716 25.9488 57.0007C25.9382 56.9297 25.948 56.8677 25.9659 56.8226C25.9801 56.7865 26.0069 56.7394 26.0808 56.6836L27.0677 55.9376C29.9713 53.743 30.5692 49.7333 28.4244 46.8388ZM55.4336 53.7203C55.4336 57.9717 51.8595 61.4181 47.4507 61.4181C43.0418 61.4181 39.4678 57.9717 39.4678 53.7203C39.4678 49.4689 43.0418 46.0225 47.4507 46.0225C51.8595 46.0225 55.4336 49.4689 55.4336 53.7203ZM52.1627 53.7203C52.1627 56.2297 50.0531 58.2641 47.4507 58.2641C44.8483 58.2641 42.7386 56.2297 42.7386 53.7203C42.7386 51.2108 44.8483 49.1765 47.4507 49.1765C50.0531 49.1765 52.1627 51.2108 52.1627 53.7203Z" fill="#465962"/>
</svg>
