<svg width="92" height="77" viewBox="0 0 92 77" fill="none" xmlns="http://www.w3.org/2000/svg">
<path fill-rule="evenodd" clip-rule="evenodd" d="M28.7521 65.5319H4.28683V73.7234H28.7521V65.5319ZM28.7521 62.9106H4.28683V33.0936H28.7521V62.9106ZM31.4704 76.3447H1.56847V30.4723H31.4704V76.3447ZM12.1021 68.8085H20.9368V71.4298H12.1021V68.8085Z" fill="#465962"/>
<path fill-rule="evenodd" clip-rule="evenodd" d="M70.8867 73.7234C70.8867 75.1711 72.1037 76.3447 73.605 76.3447H89.2356C90.7369 76.3447 91.954 75.1711 91.954 73.7234V44.234C91.954 42.7863 90.7369 41.6128 89.2356 41.6128H73.605C72.1037 41.6128 70.8867 42.7863 70.8867 44.234V73.7234ZM89.9152 69.1043V44.234C89.9152 43.8721 89.6109 43.5787 89.2356 43.5787H73.605C73.2297 43.5787 72.9254 43.8721 72.9254 44.234V68.8401L89.9152 69.1043ZM72.9254 70.8063V73.7234C72.9254 74.0853 73.2297 74.3787 73.605 74.3787H89.2356C89.6109 74.3787 89.9152 74.0853 89.9152 73.7234V71.0705L72.9254 70.8063Z" fill="#465962"/>
<path fill-rule="evenodd" clip-rule="evenodd" d="M66.1296 54.7192H34.8684V52.0979H66.1296V54.7192Z" fill="#8D999F"/>
<path fill-rule="evenodd" clip-rule="evenodd" d="M66.1296 65.8596H34.8684V63.2383H66.1296V65.8596Z" fill="#8D999F"/>
<path fill-rule="evenodd" clip-rule="evenodd" d="M0.888889 2.62128C0.888889 1.17358 2.10594 0 3.60725 0H89.2356C90.7369 0 91.954 1.17359 91.954 2.62128V38.0085H89.2356V2.62128L3.60725 2.62128V27.1957H0.888889V2.62128ZM49.1398 60.2894H46.4214V57.6681H49.1398V60.2894ZM37.5868 74.3787H34.8684V77H60.6928V74.3787H57.9745V64.8766H55.2561V74.3787H40.3051V64.8766H37.5868V74.3787Z" fill="#8D999F"/>
</svg>
