<svg width="18" height="18" viewBox="0 0 18 18" fill="none" xmlns="http://www.w3.org/2000/svg">
<path fill-rule="evenodd" clip-rule="evenodd" d="M9.22488 0.000305176C9.59767 0.000305176 9.89988 0.302513 9.89988 0.675305V17.3253C9.89988 17.6981 9.59767 18.0003 9.22488 18.0003C8.85208 18.0003 8.54988 17.6981 8.54988 17.3253V0.675305C8.54988 0.302513 8.85208 0.000305176 9.22488 0.000305176Z" fill="white"/>
<path fill-rule="evenodd" clip-rule="evenodd" d="M17.9999 9.2253C17.9999 9.59809 17.6977 9.9003 17.3249 9.9003L0.674878 9.9003C0.302086 9.9003 -0.000122103 9.59809 -0.00012207 9.2253C-0.000122038 8.85251 0.302086 8.5503 0.674878 8.5503L17.3249 8.5503C17.6977 8.5503 17.9999 8.85251 17.9999 9.2253Z" fill="white"/>
</svg>
