<svg class="c-icon__svg" data-name="Layer 1" xmlns="http://www.w3.org/2000/svg" viewBox="0 0 74 74"><defs><style>.cls-2{opacity:0.7;}</style></defs><title>Artboard 95 copy</title><rect class="cls-1" x="25.44" y="57.81" width="26.59" height="2.31"></rect><rect class="cls-1" x="27.75" y="62.44" width="21.97" height="2.31"></rect><path class="cls-1" d="M56.66,71.69a8.1,8.1,0,1,1,8.09-8.1A8.1,8.1,0,0,1,56.66,71.69Zm0-13.88a5.79,5.79,0,1,0,5.78,5.78A5.79,5.79,0,0,0,56.66,57.81Z"></path><path class="cls-1" d="M20.81,71.69a8.1,8.1,0,1,1,8.1-8.1A8.1,8.1,0,0,1,20.81,71.69Zm0-13.88a5.79,5.79,0,1,0,5.78,5.78A5.79,5.79,0,0,0,20.81,57.81Z"></path><path class="cls-1" d="M63.59,43.94H13.88a1.16,1.16,0,0,1-1.16-1.16V17.34a1.16,1.16,0,0,1,1.16-1.15H48.56V18.5H15V41.62H62.67l3.27-14.13,2.25.52L64.72,43A1.16,1.16,0,0,1,63.59,43.94Z"></path><path class="cls-1" d="M10.41,43.94H8.09v-37A2.31,2.31,0,0,0,5.78,4.62V2.31a4.64,4.64,0,0,1,4.63,4.63Z"></path><path class="cls-1" d="M15,17.34H12.72V6.94a2.32,2.32,0,0,0-2.31-2.32V2.31A4.63,4.63,0,0,1,15,6.94Z"></path><rect class="cls-1" y="2.31" width="10.41" height="2.31"></rect><rect class="cls-1" y="69.38" width="74" height="2.31"></rect><g class="cls-2"><path class="cls-1" d="M50.88,27.75a4,4,0,0,1-3.16-1.52c-.5-.53-.75-.79-1.47-.79s-1,.26-1.47.79a4,4,0,0,1-6.31,0c-.5-.53-.75-.79-1.47-.79s-1,.26-1.47.79a4,4,0,0,1-6.31,0c-.5-.53-.75-.79-1.47-.79s-1,.26-1.47.79a4,4,0,0,1-6.31,0c-.5-.53-.75-.79-1.47-.79V23.12a4,4,0,0,1,3.15,1.52c.5.53.75.8,1.47.8s1-.27,1.48-.8a4,4,0,0,1,6.3,0c.5.53.75.8,1.48.8s1-.27,1.47-.8a4,4,0,0,1,6.3,0c.5.53.75.8,1.47.8s1-.27,1.48-.8a4,4,0,0,1,6.3,0c.5.53.75.8,1.48.8Z"></path></g><g class="cls-2"><path class="cls-1" d="M60.12,37A4,4,0,0,1,57,35.48c-.5-.53-.75-.79-1.47-.79s-1,.26-1.47.79a4,4,0,0,1-6.31,0c-.5-.53-.75-.79-1.47-.79s-1,.26-1.47.79a4,4,0,0,1-6.31,0c-.5-.53-.75-.79-1.47-.79s-1,.26-1.47.79a4,4,0,0,1-6.31,0c-.5-.53-.75-.79-1.47-.79s-1,.26-1.47.79a4,4,0,0,1-6.31,0c-.5-.53-.75-.79-1.47-.79V32.38a4,4,0,0,1,3.15,1.51c.5.53.75.8,1.47.8s1-.27,1.48-.8a4,4,0,0,1,6.3,0c.5.53.75.8,1.48.8s1-.27,1.47-.8a4,4,0,0,1,6.3,0c.5.53.75.8,1.47.8s1-.27,1.48-.8a4,4,0,0,1,6.3,0c.5.53.75.8,1.48.8s1-.27,1.47-.8a4,4,0,0,1,6.3,0c.5.53.75.8,1.47.8Z"></path></g><path class="cls-1" d="M13.88,64.75a11.57,11.57,0,1,1,0-23.13H63.59a1.16,1.16,0,0,1,1.16,1.16A5.78,5.78,0,0,1,59,48.56H13.88a4.63,4.63,0,1,0,0,9.25h2.31v2.31H13.88a6.94,6.94,0,1,1,0-13.87H59a3.48,3.48,0,0,0,3.27-2.31H13.88a9.25,9.25,0,1,0,0,18.5Z"></path><g class="cls-2"><path class="cls-1" d="M62.44,25.44A11.57,11.57,0,1,1,74,13.88,11.57,11.57,0,0,1,62.44,25.44Zm0-20.82a9.25,9.25,0,1,0,9.25,9.26A9.26,9.26,0,0,0,62.44,4.62Z"></path></g><g class="cls-2"><path class="cls-1" d="M63.59,18.5H61.28V11.56H60.12V9.25h2.32a1.15,1.15,0,0,1,1.15,1.16Z"></path></g><g class="cls-2"><circle class="cls-1" cx="20.81" cy="63.59" r="2.31"></circle></g><g class="cls-2"><circle class="cls-1" cx="56.66" cy="63.59" r="2.31"></circle></g></svg>
