<svg class="c-icon__svg" data-name="Layer 1" xmlns="http://www.w3.org/2000/svg" viewBox="0 0 74 74"><defs><style>.cls-2{opacity:0.7;}</style></defs><title>Artboard 91</title><path class="cls-1" d="M9.25,49.72H4.62A4.63,4.63,0,0,1,0,45.09V12.72A4.63,4.63,0,0,1,4.62,8.09H57.81a4.64,4.64,0,0,1,4.63,4.63V22H60.12V12.72a2.3,2.3,0,0,0-2.31-2.31H4.62a2.31,2.31,0,0,0-2.31,2.31V45.09a2.32,2.32,0,0,0,2.31,2.32H9.25Z"></path><path class="cls-1" d="M69.38,65.91H16.19a4.64,4.64,0,0,1-4.63-4.63V28.91a4.64,4.64,0,0,1,4.63-4.63H69.38A4.63,4.63,0,0,1,74,28.91V61.28A4.63,4.63,0,0,1,69.38,65.91ZM16.19,26.59a2.31,2.31,0,0,0-2.31,2.32V61.28a2.3,2.3,0,0,0,2.31,2.31H69.38a2.31,2.31,0,0,0,2.31-2.31V28.91a2.32,2.32,0,0,0-2.31-2.32Z"></path><g class="cls-2"><path class="cls-1" d="M37,54.34a9.25,9.25,0,1,1,6.6-15.72L42,40.24a6.83,6.83,0,0,0-5-2.08A6.94,6.94,0,1,0,42,50l1.65,1.62A9.19,9.19,0,0,1,37,54.34Z"></path></g><path class="cls-1" d="M48.56,54.34a9.25,9.25,0,1,1,9.25-9.25A9.26,9.26,0,0,1,48.56,54.34Zm0-16.18a6.94,6.94,0,1,0,6.94,6.93A6.95,6.95,0,0,0,48.56,38.16Z"></path><g class="cls-2"><rect class="cls-1" x="1.16" y="12.72" width="60.13" height="2.31"></rect></g><g class="cls-2"><rect class="cls-1" x="1.16" y="24.28" width="8.09" height="2.31"></rect></g><g class="cls-2"><rect class="cls-1" x="4.63" y="33.53" width="4.63" height="2.31"></rect></g><g class="cls-2"><rect class="cls-1" x="20.81" y="43.94" width="2.31" height="2.31"></rect></g><g class="cls-2"><rect class="cls-1" x="62.44" y="43.94" width="2.31" height="2.31"></rect></g><g class="cls-2"><rect class="cls-1" x="43.94" y="17.34" width="11.56" height="2.31"></rect></g><g class="cls-2"><rect class="cls-1" x="37" y="17.34" width="4.63" height="2.31"></rect></g></svg>
