<svg width="31" height="33" viewBox="0 0 31 33" fill="none" xmlns="http://www.w3.org/2000/svg">
<path d="M16.4509 0.128619C15.4328 0.947774 14.8861 2.00873 14.9103 3.30061C14.939 4.84285 15.7283 6.49411 16.8835 8.05059C17.5417 8.93742 18.2746 9.73451 18.9443 10.3906C21.1279 11.9241 22.555 14.4617 22.555 17.3326C22.555 22.0143 18.7597 25.8096 14.0779 25.8096C9.39619 25.8096 5.60088 22.0143 5.60088 17.3326C5.60088 12.8144 9.13561 9.12181 13.5906 8.86928C12.5851 7.28256 11.7698 5.38981 11.7319 3.35995C11.7085 2.10814 11.9922 0.982378 12.5049 0H0V33H14.3807C23.4934 33 30.8807 25.6127 30.8807 16.5C30.8807 8.08844 24.5865 1.14699 16.4509 0.128619Z" fill="#000428"/>
<path d="M14.0779 22.6307C17.004 22.6307 19.3761 20.2587 19.3761 17.3326C19.3761 14.5155 16.949 12.0344 14.0779 12.0344C11.1518 12.0344 8.77978 14.4065 8.77978 17.3326C8.77978 20.2587 11.1518 22.6307 14.0779 22.6307Z" fill="#000428"/>
</svg>
