<svg width="88" height="77" viewBox="0 0 88 77" fill="none" xmlns="http://www.w3.org/2000/svg">
<path fill-rule="evenodd" clip-rule="evenodd" d="M0.962959 0H28.8558L34.2002 5.45669H82.0723V11.5197H79.5573V7.88189H33.1162L27.7717 2.4252H3.47798V63.6614C3.47798 65.0008 4.60399 66.0866 5.993 66.0866H9.76553V13.3386H87.7311V68.5118H70.4404V66.0866H85.2161V15.7638H12.2805V66.0866H26.1131V68.5118H5.993C3.21498 68.5118 0.962959 66.3402 0.962959 63.6614V0Z" fill="#8D999F"/>
<path fill-rule="evenodd" clip-rule="evenodd" d="M47.1764 50.0197H49.6914V56.3858H58.1796V58.811H47.1764V50.0197Z" fill="#465962"/>
<path d="M46.862 41.8346H50.0058V44.8661H46.862V41.8346Z" fill="#465962"/>
<path d="M37.4307 46.685H40.5745V49.7165H37.4307V46.685Z" fill="#465962"/>
<path d="M32.4006 55.7795H35.5444V58.811H32.4006V55.7795Z" fill="#465962"/>
<path d="M61.3234 55.7795H64.4671V58.811H61.3234V55.7795Z" fill="#465962"/>
<path d="M55.6646 64.2677H58.8083V67.2992H55.6646V64.2677Z" fill="#465962"/>
<path d="M46.862 69.7244H50.0058V72.7559H46.862V69.7244Z" fill="#465962"/>
<path d="M37.4307 64.2677H40.5745V67.2992H37.4307V64.2677Z" fill="#465962"/>
<path d="M55.6646 46.685H58.8083V49.7165H55.6646V46.685Z" fill="#465962"/>
<path fill-rule="evenodd" clip-rule="evenodd" d="M48.1195 74.5748C58.1898 74.5748 66.3534 66.7028 66.3534 56.9921C66.3534 47.2815 58.1898 39.4094 48.1195 39.4094C38.0492 39.4094 29.8856 47.2815 29.8856 56.9921C29.8856 66.7028 38.0492 74.5748 48.1195 74.5748ZM48.1195 77C59.5788 77 68.8684 68.0422 68.8684 56.9921C68.8684 45.9421 59.5788 36.9843 48.1195 36.9843C36.6602 36.9843 27.3706 45.9421 27.3706 56.9921C27.3706 68.0422 36.6602 77 48.1195 77Z" fill="#465962"/>
</svg>
