<svg width="91" height="77" viewBox="0 0 91 77" fill="none" xmlns="http://www.w3.org/2000/svg">
<path fill-rule="evenodd" clip-rule="evenodd" d="M55.0703 38.5C55.0703 43.6325 50.7556 47.7932 45.433 47.7932C40.1105 47.7932 35.7957 43.6325 35.7957 38.5C35.7957 33.3676 40.1105 29.2069 45.433 29.2069C50.7556 29.2069 55.0703 33.3676 55.0703 38.5ZM51.6284 38.5C51.6284 41.7995 48.8547 44.4742 45.433 44.4742C42.0114 44.4742 39.2376 41.7995 39.2376 38.5C39.2376 35.2006 42.0114 32.5259 45.433 32.5259C48.8547 32.5259 51.6284 35.2006 51.6284 38.5Z" fill="#465962"/>
<path fill-rule="evenodd" clip-rule="evenodd" d="M90.1777 38.5C75.7217 71.3578 18.2421 70.0303 3.05176e-05 38.5C16.8653 6.63796 72.9682 5.97414 90.1777 38.5ZM3.95248 38.4308C9.64433 47.2471 18.8749 53.4078 29.3193 56.6558C24.0135 52.273 20.6514 45.7651 20.6514 38.5C20.6514 30.8422 24.3868 24.0258 30.1965 19.6524C19.2031 22.6425 9.57782 28.9839 3.95248 38.4308ZM86.3421 38.6259C81.2975 48.738 71.4694 55.1975 59.9198 57.8904C66.1559 53.5506 70.2147 46.4824 70.2147 38.5C70.2147 30.9535 66.587 24.224 60.9214 19.8446C71.5461 22.9077 80.8261 29.1975 86.3421 38.6259ZM45.433 59.0776C57.2186 59.0776 66.7728 49.8647 66.7728 38.5C66.7728 27.1353 57.2186 17.9224 45.433 17.9224C33.6474 17.9224 24.0933 27.1353 24.0933 38.5C24.0933 49.8647 33.6474 59.0776 45.433 59.0776Z" fill="#465962"/>
<path fill-rule="evenodd" clip-rule="evenodd" d="M5.50702 0H17.8978V3.31897H8.94891V11.9483H5.50702V0ZM39.5818 3.31897H36.1399V0H39.5818V3.31897ZM47.1539 3.31897H43.3679V0H47.1539V3.31897ZM55.0703 3.31897H51.6284V0H55.0703V3.31897ZM81.9171 3.31897H72.2798V0H85.359V11.9483H81.9171V3.31897Z" fill="#8D999F"/>
<path fill-rule="evenodd" clip-rule="evenodd" d="M5.50702 77H17.8978V73.681H8.94891V65.0517H5.50702V77ZM39.5818 73.681H36.1399V77H39.5818V73.681ZM47.1539 73.681H43.3679V77H47.1539V73.681ZM55.0703 73.681H51.6284V77H55.0703V73.681ZM81.9171 73.681H72.2798V77H85.359V65.0517H81.9171V73.681Z" fill="#8D999F"/>
</svg>
