<svg width="583" height="455" viewBox="0 0 583 455" fill="none" xmlns="http://www.w3.org/2000/svg">
<path d="M291.5 455C452.491 455 583 438.848 583 418.923C583 398.998 452.491 382.846 291.5 382.846C130.509 382.846 0 398.998 0 418.923C0 438.848 130.509 455 291.5 455Z" fill="url(#paint0_radial)"/>
<path d="M125.783 51.9458V72.0739" stroke="#E9F2F4" stroke-width="0.25" stroke-miterlimit="10"/>
<path d="M135.879 50.5414C135.879 52.5387 135.288 54.4913 134.179 56.1522C133.07 57.8132 131.493 59.1079 129.648 59.8726C127.803 60.6373 125.773 60.8377 123.815 60.4484C121.856 60.059 120.057 59.0975 118.645 57.6854C117.232 56.2733 116.27 54.474 115.881 52.5151C115.491 50.5562 115.691 48.5257 116.455 46.6804C117.219 44.8351 118.513 43.2578 120.173 42.1481C121.834 41.0384 123.786 40.4461 125.783 40.4461C128.46 40.4461 131.028 41.5096 132.921 43.4028C134.814 45.2959 135.878 47.8637 135.879 50.5414Z" fill="#918DFF"/>
<path d="M125.783 18.9082V38.4488" stroke="#E9F2F4" stroke-width="0.25" stroke-miterlimit="10"/>
<path d="M135.879 15.8227C135.879 17.82 135.288 19.7726 134.179 21.4335C133.07 23.0945 131.493 24.3892 129.648 25.1539C127.803 25.9186 125.773 26.119 123.815 25.7296C121.856 25.3403 120.057 24.3788 118.645 22.9667C117.232 21.5546 116.27 19.7553 115.881 17.7964C115.491 15.8375 115.691 13.807 116.455 11.9617C117.219 10.1164 118.513 8.53913 120.173 7.42943C121.834 6.31973 123.786 5.72742 125.783 5.72742C128.46 5.72778 131.027 6.7914 132.92 8.68447C134.814 10.5775 135.878 13.1451 135.879 15.8227Z" fill="#918DFF"/>
<path d="M124.982 20.5935L120.313 14.5811L124.544 16.3451L134.274 7.83331L124.982 20.5935Z" fill="white"/>
<path d="M135.879 85.9358C135.879 87.9331 135.288 89.8857 134.179 91.5467C133.07 93.2076 131.493 94.5023 129.648 95.2671C127.803 96.0318 125.773 96.2321 123.815 95.8428C121.856 95.4535 120.057 94.492 118.645 93.0798C117.232 91.6677 116.27 89.8684 115.881 87.9095C115.491 85.9506 115.691 83.9201 116.455 82.0748C117.219 80.2295 118.513 78.6523 120.173 77.5426C121.834 76.4329 123.786 75.8406 125.783 75.8406C128.46 75.8406 131.028 76.9041 132.921 78.7972C134.814 80.6904 135.878 83.2581 135.879 85.9358Z" fill="#918DFF"/>
<path d="M124.982 54.5171L120.313 48.5047L124.544 50.2687L134.274 41.7569L124.982 54.5171Z" fill="white"/>
<path d="M124.982 90.305L120.313 84.2926L124.544 86.0566L134.274 77.5448L124.982 90.305Z" fill="white"/>
<path d="M183.104 8.90933H141.844V14.4807H183.104V8.90933Z" fill="#918DFF"/>
<path d="M214.055 16.8349H141.844V32.3767H214.055V16.8349Z" fill="#9AEDFF"/>
<path d="M214.055 51.4044H141.844V66.9462H214.055V51.4044Z" fill="#9AEDFF"/>
<path d="M214.055 86.4107H141.844V101.953H214.055V86.4107Z" fill="#9AEDFF"/>
<path d="M183.104 43.8533H141.844V49.4247H183.104V43.8533Z" fill="#918DFF"/>
<path d="M183.104 78.5313H141.844V84.1027H183.104V78.5313Z" fill="#918DFF"/>
<path d="M302.061 37.6546C304.593 21.9305 293.902 7.13008 278.18 4.59701C262.459 2.06394 247.661 12.7574 245.128 28.4816C242.596 44.2057 253.287 59.0061 269.009 61.5392C284.73 64.0723 299.528 53.3788 302.061 37.6546Z" fill="#918DFF"/>
<path d="M283.285 2.85896L273.612 33.0769L245.84 6.39093L285.183 -2.45462L283.285 2.85896Z" fill="#E9F2F4"/>
<path d="M283.285 2.85895L273.612 33.0769L306.566 12.7968L285.177 -2.45599L283.285 2.85895Z" fill="#508CFF"/>
<path d="M273.612 61.9202V33.0742L306.566 12.7941L309.081 47.1057L280.407 65.8851L273.612 61.9202Z" fill="#52E6C6"/>
<path d="M331.079 4.98926H413.414" stroke="#918DFF" stroke-miterlimit="10"/>
<path d="M331.079 10.6448H413.414" stroke="#918DFF" stroke-miterlimit="10"/>
<path d="M331.079 16.3003H413.414" stroke="#918DFF" stroke-miterlimit="10"/>
<path d="M331.079 21.9558H413.414" stroke="#918DFF" stroke-miterlimit="10"/>
<path d="M331.079 27.6113H413.414" stroke="#918DFF" stroke-miterlimit="10"/>
<path d="M331.079 33.2668H413.414" stroke="#918DFF" stroke-miterlimit="10"/>
<path d="M331.079 40.6958H413.414" stroke="#918DFF" stroke-miterlimit="10"/>
<path d="M331.079 46.2264H413.414" stroke="#918DFF" stroke-miterlimit="10"/>
<path d="M331.079 51.7558H413.414" stroke="#918DFF" stroke-miterlimit="10"/>
<path d="M331.079 57.2864H413.414" stroke="#918DFF" stroke-miterlimit="10"/>
<path d="M494.142 132.806C507.372 126.933 513.337 111.446 507.465 98.2138C501.593 84.9818 486.109 79.016 472.879 84.8887C459.649 90.7614 453.684 106.249 459.556 119.481C465.428 132.713 480.912 138.679 494.142 132.806Z" fill="#BFBDFF"/>
<mask id="mask0" mask-type="alpha" maskUnits="userSpaceOnUse" x="457" y="82" width="53" height="54">
<path d="M494.142 132.806C507.372 126.933 513.337 111.446 507.465 98.2138C501.593 84.9818 486.109 79.016 472.879 84.8887C459.649 90.7614 453.684 106.249 459.556 119.481C465.428 132.713 480.912 138.679 494.142 132.806Z" fill="#918DFF"/>
</mask>
<g mask="url(#mask0)">
<path d="M492.299 81.3889L483.509 108.848L458.276 84.5979L494.021 76.5597L492.299 81.3889Z" fill="#7CE6FE"/>
<path d="M492.299 81.3875L483.509 108.847L517.62 111.814L505.539 84.4595L492.299 81.3875Z" fill="#508CFF"/>
<path d="M483.509 135.058V108.847H512.839L515.74 121.602L489.682 138.666L483.509 135.058Z" fill="#52E6C6"/>
</g>
<path d="M497.968 112.272C499.86 104.286 494.92 96.278 486.936 94.3861C478.951 92.4941 470.944 97.4344 469.052 105.421C467.161 113.407 472.1 121.415 480.085 123.307C488.07 125.199 496.077 120.258 497.968 112.272Z" fill="white"/>
<path d="M466.372 143.168H503.018" stroke="#E9F2F4" stroke-miterlimit="10"/>
<path d="M466.372 151.199H503.018" stroke="#E9F2F4" stroke-miterlimit="10"/>
<path d="M466.372 159.231H503.018" stroke="#E9F2F4" stroke-miterlimit="10"/>
<path d="M149.485 405.149H152.741L179.331 275.514H172.597L149.485 405.149Z" fill="#C7C7C7"/>
<path d="M400.372 405.149H397.116L370.525 275.514H377.261L400.372 405.149Z" fill="#C7C7C7"/>
<path d="M145.186 197.48C144.131 198.677 143.405 200.126 143.077 201.687C143.505 200.516 144.261 199.493 145.255 198.741C146.594 197.891 148.375 198.008 149.721 197.172C150.9 196.254 151.767 194.995 152.205 193.567C151.197 194.453 150.025 195.133 148.755 195.567C147.401 195.834 146.158 196.501 145.186 197.48Z" fill="#482C3B"/>
<path d="M156.609 390.629H161.559V342.648H156.609V390.629Z" fill="#A6AEBA"/>
<path d="M155.104 342.648H163.062V335.663H155.104V342.648Z" fill="#D2DCEB"/>
<path d="M156.078 387.137H162.088V372.163H156.078V387.137Z" fill="#D2DCEB"/>
<path d="M155.104 394.122H163.062V387.137H155.104V394.122Z" fill="#D2DCEB"/>
<path d="M149.437 335.663H168.729V322.439H149.437V335.663Z" fill="#A6AEBA"/>
<path d="M133.871 328.387H186.225C186.63 328.387 186.959 328.059 186.959 327.653V319.219C186.959 318.813 186.63 318.485 186.225 318.485H133.871C133.466 318.485 133.137 318.813 133.137 319.219V327.653C133.137 328.059 133.466 328.387 133.871 328.387Z" fill="#A6AEBA"/>
<path d="M139.911 400.795L155.106 393.26V388.006L137.917 399.53L139.911 400.795Z" fill="#A6AEBA"/>
<path d="M137.915 405.832C139.881 405.832 141.475 404.238 141.475 402.271C141.475 400.305 139.881 398.711 137.915 398.711C135.949 398.711 134.355 400.305 134.355 402.271C134.355 404.238 135.949 405.832 137.915 405.832Z" fill="#A6AEBA"/>
<path d="M159.083 405.832C161.049 405.832 162.643 404.238 162.643 402.271C162.643 400.305 161.049 398.711 159.083 398.711C157.117 398.711 155.523 400.305 155.523 402.271C155.523 404.238 157.117 405.832 159.083 405.832Z" fill="#A6AEBA"/>
<path d="M178.257 400.795L163.062 393.26V388.006L180.251 399.53L178.257 400.795Z" fill="#A6AEBA"/>
<path d="M183.814 402.27C183.814 402.974 183.605 403.663 183.214 404.248C182.823 404.834 182.267 405.29 181.616 405.559C180.966 405.829 180.25 405.899 179.559 405.762C178.869 405.625 178.235 405.286 177.737 404.788C177.239 404.29 176.9 403.655 176.762 402.965C176.625 402.274 176.696 401.558 176.965 400.907C177.234 400.257 177.691 399.701 178.276 399.31C178.862 398.918 179.55 398.71 180.254 398.71C180.721 398.71 181.184 398.802 181.616 398.981C182.048 399.159 182.441 399.422 182.771 399.752C183.102 400.083 183.364 400.475 183.543 400.907C183.722 401.339 183.814 401.802 183.814 402.27Z" fill="#A6AEBA"/>
<path d="M158.12 402.227H160.048V390.628H158.12V402.227Z" fill="#A6AEBA"/>
<path d="M124.187 323.908C123.324 323.938 122.476 323.67 121.787 323.148C121.098 322.627 120.609 321.884 120.404 321.044C119.102 315.68 116.741 305.669 116.688 280.652C116.629 253.048 110.892 232.056 108.915 223.208C108.648 222.014 108.77 220.766 109.262 219.646C109.755 218.526 110.592 217.593 111.653 216.983C112.831 216.305 114.167 215.948 115.526 215.947H163.486C163.486 215.947 183.201 251.227 185.788 263.303C188.375 275.379 191.985 321.785 191.985 321.785L124.187 323.908Z" fill="#FF8A95"/>
<path d="M125.751 324.002C125.751 324.002 121.274 315.219 121.199 280.653C121.137 252.193 115.483 228.746 113.852 219.694C113.769 219.235 113.789 218.763 113.908 218.313C114.028 217.862 114.245 217.443 114.545 217.086C114.844 216.729 115.219 216.441 115.642 216.245C116.064 216.048 116.525 215.947 116.992 215.949H168.002C168.002 215.949 187.717 251.228 190.301 263.304C192.886 275.381 196.501 321.786 196.501 321.786L125.751 324.002Z" fill="#F74455"/>
<path d="M172.277 324.002H123.015C122.544 324.002 122.092 323.815 121.759 323.482C121.426 323.149 121.239 322.697 121.239 322.226V313.487H172.277V324.002Z" fill="#FF8A95"/>
<path d="M205.775 324.002H133.137V315.711C133.137 315.419 133.195 315.13 133.306 314.86C133.418 314.59 133.582 314.345 133.788 314.139C133.995 313.932 134.24 313.768 134.51 313.657C134.78 313.545 135.069 313.487 135.361 313.487H205.775C206.365 313.487 206.931 313.722 207.348 314.139C207.765 314.556 207.999 315.122 207.999 315.711V321.778C207.999 322.368 207.765 322.933 207.348 323.351C206.931 323.768 206.365 324.002 205.775 324.002V324.002Z" fill="#F74455"/>
<path d="M140.356 203.801C140.356 203.801 147.774 201.452 148.52 198.222C149.128 195.598 150.097 187.453 150.097 187.453H163.035C163.035 187.453 162.54 194.73 163.035 197.087C164.266 202.947 171.617 204.877 171.617 204.877L172.666 223.186L153.594 239.177L135.201 220.69L140.356 203.801Z" fill="#FEC4AD"/>
<path d="M169.946 167.494C173.202 171.846 172.545 172.461 172.098 178.458C171.781 182.669 170.915 186.82 169.52 190.806C168.641 193.066 164.04 202.784 155.839 199.236C151.301 197.274 146.148 192.439 144.663 189.112C143.462 185.608 142.87 181.924 142.915 178.219C142.83 174.231 142.81 169.057 142.954 166.083C143.457 155.574 163.977 159.535 169.946 167.494Z" fill="#FEC4AD"/>
<path d="M191.297 290.914C198.363 289.384 202.296 291.655 206.528 296.735C210.761 301.815 209.067 314.087 206.528 324.245C203.99 334.402 194.256 402.072 194.256 402.072H187.066C187.066 402.072 185.218 375.408 183.945 355.938C182.673 336.468 187.021 308.582 187.021 308.582L159.554 290.913C159.554 290.913 184.953 292.289 191.297 290.914Z" fill="#133A50"/>
<path d="M190.961 281.109C196.355 286.146 212.232 294.639 209.063 305.137L187.796 314.151C187.796 314.151 166.187 306.316 159.558 290.914L152.931 275.513L167.176 269.846L190.961 281.109Z" fill="#133A50"/>
<path d="M175.428 294.644C179.34 297.468 189.911 302.121 187.796 314.151C186.71 320.285 169.426 357.338 159.984 372.904C155.172 380.841 146.598 397.45 146.598 397.45L138.558 399.374C138.558 399.374 144.753 379.212 148.983 360.592C153.213 341.971 165.534 319.739 165.534 319.739C160.469 316.325 155.164 313.282 149.661 310.633C142.891 307.672 139.248 306.464 149.403 296.731C159.559 286.998 167.812 289.143 175.428 294.644Z" fill="#133A50"/>
<path d="M190.959 237.347C191.819 241.565 193.223 245.654 195.135 249.511C196.826 252.461 231.705 265.318 231.705 265.318H211.332C211.332 265.318 191.932 262.771 186.406 255.337C182.389 249.627 178.823 243.613 175.74 237.348L190.959 237.347Z" fill="#FEC4AD"/>
<path d="M178.467 207.426C182.075 209.031 185.408 218.146 188.071 225.915C189.482 229.599 190.452 233.436 190.959 237.348C190.959 237.348 181.638 242.68 176.693 241.346C176.693 241.346 171.997 224.474 175.23 215.95L178.467 207.426Z" fill="#133A50"/>
<path d="M160.485 281.719C170.645 281.312 180.805 281.065 190.961 281.109C186.024 277.907 181.666 275.682 180.717 274.732C178.601 272.617 179.319 253.765 180.874 247.908C182.429 242.05 182.334 235.267 181.208 232.245C180.082 229.223 178.467 207.43 178.467 207.43L171.619 204.883C171.619 204.883 173.719 220.694 157.103 220.694C140.425 220.694 140.353 203.805 140.353 203.805L129.724 206.16C129.724 206.16 128.94 226.747 129.334 236.089C129.729 245.431 134.165 261.612 135.439 270.076C136.427 276.664 134.598 280.693 133.339 285.545C141.795 282.212 151.084 281.394 160.485 281.719Z" fill="#133A50"/>
<path d="M147.093 396.091C144.808 395.633 144 396.547 141.946 397.917C140.646 398.751 139.148 399.224 137.605 399.286V405.455H153.484L147.093 396.091Z" fill="#FF5E69"/>
<path d="M195.641 397.235C195.641 397.235 195.409 399.373 191.978 400.338C190.94 400.584 189.855 400.54 188.84 400.211C187.825 399.883 186.92 399.281 186.223 398.473L185.464 405.459L212.532 405.624L195.641 397.235Z" fill="#FF5E69"/>
<path d="M196.117 263.706C193.077 263.345 190.158 260.5 178.382 260.36C171.686 259.442 165.047 258.15 158.496 256.49C154.537 255.434 150.754 253.802 147.269 251.646C147.269 251.646 142.954 235.555 141.307 225.344C136.519 224.82 131.747 224.207 127.001 223.404C126.831 236.15 135.861 258.818 138.866 261.075C144.716 265.477 158.466 265.258 161.768 265.319C169.417 265.455 202.011 266.337 202.011 266.337C202.011 266.337 204.523 264.705 196.117 263.706Z" fill="#FEC4AD"/>
<path d="M145.148 241.468C145.148 241.468 140.806 215.998 139.556 213.319C133.06 199.468 124.137 206.848 125.446 217.568C126.002 222.131 126.358 233.924 128.664 245.06C134.364 245.173 140.011 243.943 145.148 241.468Z" fill="#133A50"/>
<path d="M189.178 266.334H202.012L214.846 221.421H205.089L189.178 266.334Z" fill="#A6AEBA"/>
<path d="M192.861 266.334H242.951L255.785 221.421H205.695L192.861 266.334Z" fill="#D2DCEB"/>
<path d="M185.492 268.668H242.951V265.318H185.492V268.668Z" fill="#D2DCEB"/>
<path d="M156.763 268.668H185.492V265.318H156.763V268.668Z" fill="#A6AEBA"/>
<path d="M220.372 246.062C218.921 249.502 219.943 253.214 222.651 254.356C225.359 255.497 228.729 253.638 230.18 250.201C231.632 246.764 230.609 243.049 227.901 241.907C225.193 240.766 221.821 242.625 220.372 246.062Z" fill="#A6AEBA"/>
<path d="M133.342 285.54C131.451 294.646 135.92 314.546 165.533 319.744L182.423 326.587C184.442 324.095 185.899 321.197 186.694 318.09C187.489 314.982 187.603 311.74 187.028 308.585C184.91 298.145 173.054 294.171 165.242 281.541C165.242 281.541 152.97 276.409 145.084 279.157C140.796 280.51 136.81 282.677 133.342 285.54Z" fill="#133A50"/>
<path d="M172.469 173.706C172.469 173.706 168.91 173.842 164.533 167.247C164.533 167.247 165.004 170.233 160.746 174.258C156.489 178.284 152.67 177.192 152.029 179.135C151.639 180.33 151.403 181.571 151.329 182.826C151.329 182.826 150.615 182.816 149.923 181.774C149.467 181.086 149.235 179.413 148.463 178.903C146.519 177.614 143.172 179.34 144.248 183.124C144.87 184.751 146 186.134 147.469 187.069C147.42 193.53 150.057 195.517 150.057 195.517C150.057 195.517 145.682 197.502 143.457 196.591C140.258 195.281 139.446 193.275 139.562 189.658C137.952 189.341 136.467 188.568 135.282 187.432C130.821 183.005 135.96 170.397 138.032 168.843C138.032 168.843 133.156 161.937 139.283 157.296C145.499 152.588 147.902 160.198 147.902 160.198C149.965 158.641 158.431 158.117 162.743 159.723C174.89 164.246 172.469 173.706 172.469 173.706Z" fill="#482C3B"/>
<path d="M164.249 167.177C164.631 169.644 164.268 175.375 157.659 179.861" stroke="#482C3B" stroke-width="0.25" stroke-miterlimit="10"/>
<path d="M439.834 342.648H434.884V390.629H439.834V342.648Z" fill="#A6AEBA"/>
<path d="M441.338 335.663H433.379V342.648H441.338V335.663Z" fill="#D2DCEB"/>
<path d="M440.365 372.163H434.355V387.137H440.365V372.163Z" fill="#D2DCEB"/>
<path d="M441.338 387.137H433.379V394.122H441.338V387.137Z" fill="#D2DCEB"/>
<path d="M447.004 322.439H427.713V335.663H447.004V322.439Z" fill="#A6AEBA"/>
<path d="M462.572 318.485H410.219C409.813 318.485 409.485 318.813 409.485 319.219V327.653C409.485 328.059 409.813 328.387 410.219 328.387H462.572C462.977 328.387 463.306 328.059 463.306 327.653V319.219C463.306 318.813 462.977 318.485 462.572 318.485Z" fill="#A6AEBA"/>
<path d="M456.532 400.795L441.338 393.26V388.006L458.526 399.53L456.532 400.795Z" fill="#A6AEBA"/>
<path d="M462.086 402.27C462.086 402.974 461.878 403.663 461.486 404.248C461.095 404.834 460.539 405.29 459.889 405.559C459.238 405.829 458.523 405.899 457.832 405.762C457.141 405.625 456.507 405.286 456.009 404.788C455.511 404.29 455.172 403.655 455.035 402.965C454.898 402.274 454.968 401.558 455.238 400.907C455.507 400.257 455.963 399.701 456.549 399.31C457.134 398.918 457.822 398.709 458.527 398.709C458.994 398.709 459.457 398.802 459.889 398.981C460.321 399.159 460.713 399.422 461.044 399.752C461.374 400.083 461.637 400.475 461.815 400.907C461.994 401.339 462.086 401.802 462.086 402.27Z" fill="#A6AEBA"/>
<path d="M437.359 405.832C439.325 405.832 440.918 404.238 440.918 402.271C440.918 400.305 439.325 398.711 437.359 398.711C435.392 398.711 433.799 400.305 433.799 402.271C433.799 404.238 435.392 405.832 437.359 405.832Z" fill="#A6AEBA"/>
<path d="M418.186 400.795L433.381 393.26V388.006L416.192 399.53L418.186 400.795Z" fill="#A6AEBA"/>
<path d="M416.192 405.832C418.158 405.832 419.752 404.238 419.752 402.271C419.752 400.305 418.158 398.711 416.192 398.711C414.226 398.711 412.632 400.305 412.632 402.271C412.632 404.238 414.226 405.832 416.192 405.832Z" fill="#A6AEBA"/>
<path d="M438.323 390.629H436.395V402.228H438.323V390.629Z" fill="#A6AEBA"/>
<path d="M472.255 323.908C473.119 323.938 473.967 323.67 474.656 323.148C475.346 322.627 475.835 321.884 476.041 321.044C477.342 315.68 479.704 305.669 479.757 280.652C479.815 253.047 494.283 232.056 496.258 223.208C496.526 222.014 496.405 220.766 495.912 219.645C495.42 218.525 494.581 217.592 493.52 216.983C492.343 216.304 491.007 215.947 489.648 215.947H432.956C432.956 215.947 413.241 251.227 410.654 263.303C408.067 275.379 404.457 321.785 404.457 321.785L472.255 323.908Z" fill="#FF8A95"/>
<path d="M470.69 324.002C470.69 324.002 475.167 315.219 475.243 280.653C475.304 252.193 489.689 228.746 491.322 219.694C491.405 219.235 491.386 218.764 491.266 218.313C491.146 217.862 490.929 217.444 490.629 217.086C490.33 216.729 489.955 216.442 489.533 216.245C489.11 216.049 488.649 215.948 488.183 215.949H428.445C428.445 215.949 408.73 251.228 406.143 263.304C403.556 275.38 399.946 321.786 399.946 321.786L470.69 324.002Z" fill="#F74455"/>
<path d="M408.462 313.487H475.201V322.226C475.201 322.697 475.014 323.149 474.681 323.482C474.348 323.815 473.896 324.002 473.425 324.002H408.462V313.487Z" fill="#FF8A95"/>
<path d="M390.668 313.487H414.578C415.167 313.488 415.732 313.723 416.148 314.14C416.565 314.557 416.798 315.122 416.798 315.711V324.002H390.666C390.374 324.002 390.085 323.944 389.816 323.833C389.546 323.721 389.301 323.557 389.095 323.35C388.888 323.144 388.725 322.899 388.613 322.629C388.501 322.359 388.444 322.07 388.444 321.778V315.711C388.444 315.122 388.678 314.556 389.095 314.139C389.512 313.722 390.078 313.487 390.668 313.487V313.487Z" fill="#F74455"/>
<path d="M420.288 205.573C415.668 210.173 415.355 233.287 410.681 245.286C410.681 245.286 378.828 257.741 364.309 261.399L369.349 266.711C369.349 266.711 412.507 256.337 417.983 252.693C426.349 247.13 431.211 224.606 432.009 213.335C432.807 202.065 425.117 200.767 420.288 205.573Z" fill="#FEC4AD"/>
<path d="M367.851 262.232L364.311 261.399C364.311 261.399 357.027 260.733 354.695 260.4C352.362 260.068 349.573 262.733 346.389 263.732C344.191 264.483 342.086 265.484 340.117 266.717H342.662L347.852 267.568L352.531 266.717C355.452 266.437 358.394 266.437 361.315 266.717C363.986 267.001 366.68 267.001 369.351 266.717L367.851 262.232Z" fill="#FEC4AD"/>
<path d="M399.376 285.527C389.49 288.803 377.371 294.054 373.819 297.359C370.268 300.665 363.277 305.352 368.916 323.501C372.521 335.097 388.231 393.844 388.231 393.844L396.191 392.427C396.191 392.427 393.363 358.387 390.531 332.922C389.158 320.574 388.691 317.135 388.691 317.135L399.376 312.783C412.921 307.22 408.279 283.951 408.279 283.951L399.376 285.527Z" fill="#FEC4AD"/>
<path d="M377.252 293.813C373.701 297.115 371.193 296.009 365.864 314.253C362.459 325.91 350.043 384.698 350.043 384.698L357.459 387.917C367.489 359.817 367.477 359.844 379.196 337.033C382.719 330.048 385.424 322.68 387.256 315.074L408.92 313.772C422.465 308.209 417.821 288.432 417.821 288.432C417.821 288.432 380.797 290.508 377.252 293.813Z" fill="#FEC4AD"/>
<path d="M459.316 276.332C459.316 285.83 466.186 296.313 458.231 307.107C451.031 316.869 408.924 313.775 408.924 313.775C408.924 313.775 414.864 303.487 409.224 295.699C405.621 290.722 397.311 286.112 397.311 286.112L420.867 278.504L439.777 263.812L459.316 276.332Z" fill="#508CFF"/>
<path d="M435.689 203.478C434.415 207.808 425.378 207.722 418.711 199.638C412.045 191.553 407.21 177.773 413.865 168.036C420.521 158.299 429.422 177.155 432.451 187.183C434.169 192.468 435.256 197.937 435.689 203.478Z" fill="#B56537"/>
<path d="M414.668 167.9C412.88 170.025 414.591 178.119 414.905 179.321C415.512 181.645 414.333 184.846 415.008 185.385C415.682 185.924 416.018 185.485 417.163 185.755C417.285 185.784 420.419 191.933 420.974 193.207C421.817 195.146 426.363 191.715 427.74 193.168C428.737 194.222 428.78 196.178 429.118 198.604L426.46 209.339L448.152 205.162C448.152 205.162 441.819 195.728 440.203 191.415C438.588 187.101 440.61 182.386 440.068 176.592C439.525 170.798 436.947 163.352 428.749 162.578C426.147 162.263 423.507 162.583 421.055 163.509C418.603 164.436 416.412 165.942 414.668 167.9Z" fill="#FEC4AD"/>
<path d="M421.529 277.268C426.342 276.497 431.247 276.497 436.06 277.268C445.086 278.476 458.457 275.946 458.457 275.946C458.457 275.946 452.978 247.685 453.313 234.865C453.648 222.045 454.67 208.219 454.67 208.219L430.64 204.171C430.64 204.171 424.823 206.252 421.536 215.638C418.249 225.024 418.745 265.517 421.529 277.268Z" fill="#E4DDD7"/>
<path d="M429.118 198.604C427.346 200.368 421.53 202.651 421.53 205.182C421.53 207.713 416.977 229.47 417.23 234.021C417.482 238.572 419.155 255.877 418.143 261.189C417.131 266.501 417.131 278.286 417.131 278.286L421.53 277.273C421.53 277.273 420.266 247.183 421.53 236.053C422.795 224.922 430.635 204.43 430.635 204.43L427.684 203.418L429.118 198.604Z" fill="#133A50"/>
<path d="M437.859 204.423L430.634 204.171C430.634 204.171 428.202 215.298 428.202 236.736C428.202 254.783 431.898 279.105 431.898 279.105C436.146 280.573 440.593 281.388 445.086 281.52C449.674 281.664 454.238 280.801 458.457 278.991C457.725 267.387 457.725 255.748 458.457 244.144C459.722 226.94 464.321 223.029 463.432 211.761C461.959 193.074 445.051 199.619 445.051 199.619L437.859 204.423Z" fill="#133A50"/>
<path d="M430.635 204.171C430.635 204.171 442.271 198.608 444.041 195.062C444.672 196.5 445.016 198.047 445.054 199.616C444.801 201.133 433.672 211.759 433.672 211.759L430.635 204.171Z" fill="#508CFF"/>
<path d="M440.274 205.497C443.123 191.134 435.489 186.907 427.136 181.789C421.744 178.25 417.21 173.55 413.867 168.033C413.867 168.033 417.101 157.523 426.532 155.368C435.964 153.213 448.01 159.092 451.054 173.957C453.211 184.502 456.033 188.215 463.18 193.361C471.8 199.568 474.379 215.393 464.323 223.018C455.02 230.074 460.399 213.318 456.946 203.915C456.363 202.323 449.126 210.414 445.087 211.751C440.845 213.162 439.814 207.809 440.274 205.497Z" fill="#B56537"/>
<path d="M429.118 198.604C429.118 198.604 428.358 202.145 430.635 204.167L426.336 210.239C426.336 210.239 425.069 205.433 426.336 203.407C427.603 201.381 429.118 198.604 429.118 198.604Z" fill="#508CFF"/>
<path d="M387.676 389.584C387.676 389.584 387.908 391.723 391.339 392.688C392.378 392.933 393.464 392.889 394.479 392.561C395.494 392.232 396.4 391.631 397.097 390.823L397.854 397.809L386.915 405.521H377.826L382.744 400.07L387.676 389.584Z" fill="#133A50"/>
<path d="M351.212 379.908C350.766 380.752 350.658 381.735 350.91 382.655C351.162 383.576 351.755 384.366 352.569 384.865C353.483 385.415 354.531 385.704 355.598 385.699C356.665 385.695 357.711 385.398 358.621 384.841L357.218 391.726L331.384 383.643L351.212 379.908Z" fill="#133A50"/>
<path d="M451.408 207.745C448.911 213.767 441.579 233.548 436.907 245.544C436.907 245.544 402.963 256.421 388.444 260.078L393.484 265.39C393.484 265.39 434.884 259.049 443.864 254.864C452.971 250.62 461.597 221.423 463.128 213.759C465.344 202.684 454.104 201.243 451.408 207.745Z" fill="#FEC4AD"/>
<path d="M391.985 260.911L388.444 260.079C388.444 260.079 381.16 259.413 378.828 259.078C376.496 258.742 373.707 261.41 370.523 262.409C368.325 263.16 366.22 264.162 364.251 265.394H366.793L371.981 266.245L376.662 265.394C379.583 265.114 382.525 265.114 385.446 265.394C388.117 265.677 390.81 265.677 393.481 265.394L391.985 260.911Z" fill="#FEC4AD"/>
<path d="M257.376 116.128L248.168 137.484L250.529 138.502L259.743 117.135C259.768 117.077 259.781 117.014 259.782 116.951C259.782 116.888 259.77 116.826 259.747 116.768C259.723 116.709 259.688 116.656 259.643 116.611C259.599 116.566 259.546 116.531 259.488 116.507C258.993 116.296 258.495 116.086 257.996 115.878C257.88 115.83 257.751 115.83 257.635 115.877C257.519 115.923 257.426 116.013 257.376 116.128Z" fill="#364469"/>
<path d="M257.441 121.347L255.905 120.684L258.483 114.692C258.571 114.489 258.736 114.329 258.942 114.247C259.148 114.165 259.378 114.168 259.582 114.255C259.785 114.343 259.946 114.509 260.028 114.715C260.109 114.921 260.106 115.151 260.019 115.355L257.441 121.347Z" fill="#364469"/>
<path d="M281.58 166.833C281.58 166.833 272.527 191.705 269.235 191.586C266.76 191.496 250.21 168.87 247.548 164.954C244.887 161.038 239.715 151.833 239.715 151.833L246.451 149.738C246.451 149.738 258.043 163.7 261.019 166.208C263.994 168.716 265.247 169.654 265.247 169.654L268.693 160.236L281.58 166.833Z" fill="#FEC4AD"/>
<path d="M276.573 140.921C272.927 141.89 271.668 145.136 270.103 151.832C269.043 156.234 267.76 160.58 266.258 164.851L278.247 170.436C278.247 170.436 280.409 158.531 281.207 151.009C282.005 143.488 279.755 140.073 276.573 140.921Z" fill="#364469"/>
<path d="M325.809 397.009V405.818H308.884C308.884 405.818 309.521 402.63 317.547 401.16L318.728 397.011L325.809 397.009Z" fill="#133A50"/>
<path d="M290.043 397.009V405.818H273.119C273.119 405.818 273.755 402.63 281.781 401.16L282.962 397.011L290.043 397.009Z" fill="#133A50"/>
<path d="M322.112 219.414C322.112 219.414 325.191 247.419 325.298 277.505C325.406 307.592 327.198 396.985 327.198 396.985H315.049C315.049 396.985 302.524 310.599 297.971 291.259C293.418 271.919 281.58 219.777 281.58 219.777L322.112 219.414Z" fill="#133A50"/>
<path d="M303.435 117.711C303.435 117.711 304.22 123.836 304.866 126.953C305.188 128.915 305.745 130.832 306.524 132.662C307.578 134.772 314.037 141.196 314.037 141.196C314.037 141.196 293.897 151.832 287.977 151.832C282.056 151.832 284.129 139.952 284.129 139.952C284.129 139.952 290.586 134.849 291.548 132.269C292.509 129.69 293.04 122.229 293.04 122.229L303.435 117.711Z" fill="#FEC4AD"/>
<path d="M295.695 250.148C295.695 250.148 293.418 295.988 292.964 305.015C292.509 314.042 292.964 396.941 292.964 396.941C292.964 396.941 281.58 397.249 281.58 396.941C281.58 396.633 270.848 309.524 269.458 287.282C268.069 265.04 268.88 238.677 267.035 235.601C265.19 232.525 272.018 219.563 272.018 219.563L288.13 223.861L295.695 250.148Z" fill="#133A50"/>
<path d="M309.933 135.21L330.64 144.144C330.64 144.144 326.545 160.905 326.317 167.568C326.089 174.23 323.7 226.855 323.7 226.855C323.7 226.855 317.343 236.704 286.757 232.782C274.964 231.271 269.164 225.522 269.164 225.522C269.164 225.522 272.47 167.568 273.382 160.905C274.293 154.243 276.569 140.921 276.569 140.921L286.545 137.85L290.615 143.924L309.933 135.21Z" fill="#E9F2F4"/>
<path d="M309.013 131.598L290.621 143.921L295.677 149.735L309.937 135.209L309.013 131.598Z" fill="#364469"/>
<path d="M290.621 143.922L285.601 147.952L286.551 137.85L288.429 135.21L290.621 143.922Z" fill="#364469"/>
<path d="M271.234 180.044L253.552 185.154C252.645 185.393 251.685 185.316 250.828 184.937C249.971 184.558 249.268 183.899 248.834 183.069L231.614 146.271C231.424 145.899 231.321 145.488 231.313 145.07C231.305 144.652 231.392 144.238 231.568 143.859C231.744 143.48 232.004 143.145 232.328 142.882C232.652 142.618 233.032 142.431 233.439 142.336L250.966 137.157C254.159 136.845 255.753 137.469 256.562 139.161L273.823 175.678C274.639 177.389 274.327 178.58 271.234 180.044Z" fill="#97A3CC"/>
<path d="M270.238 180.414L252.466 185.556C251.555 185.799 250.589 185.724 249.726 185.345C248.864 184.966 248.155 184.304 247.718 183.469L230.433 146.508C230.242 146.134 230.139 145.721 230.132 145.302C230.125 144.882 230.213 144.466 230.391 144.086C230.568 143.706 230.829 143.371 231.156 143.107C231.482 142.843 231.864 142.656 232.272 142.562L249.891 137.366C250.826 137.104 251.823 137.169 252.717 137.549C253.61 137.929 254.348 138.602 254.808 139.457L272.212 176.31C272.408 176.704 272.511 177.136 272.514 177.576C272.516 178.015 272.419 178.449 272.228 178.845C272.038 179.24 271.76 179.587 271.415 179.859C271.07 180.131 270.668 180.321 270.238 180.414Z" fill="url(#paint1_linear)"/>
<path d="M321.558 170.515C321.558 170.515 305.118 197.807 302.924 198.748C300.731 199.688 272.367 181.217 267.042 177.77C261.717 174.324 257.258 170.937 256.596 170.389C255.934 169.84 254.344 164.283 254.402 164.298C254.673 163.989 254.922 163.662 255.147 163.318L255.851 163.69L255.479 161.477L256.145 160.223L256.791 160.44L257.006 158.206L257.985 156.523C257.985 156.523 260.778 159.683 262.5 161.563C263.642 162.78 264.902 163.882 266.259 164.852C266.18 163.653 266.18 162.449 266.259 161.25C266.273 160.353 266.167 159.457 265.946 158.588L268.693 160.238C268.693 160.238 271.115 167.876 271.586 168.479C272.341 170.292 273.471 171.925 274.902 173.271C276.333 174.617 278.031 175.645 279.887 176.288C291.665 180.776 298.202 182.465 298.202 182.465C297.737 182.397 308.926 162.068 308.926 162.068L321.558 170.515Z" fill="#FEC4AD"/>
<path d="M331.418 154.463C329.855 161.896 318.974 178.119 318.974 178.119L305.627 168.118C305.627 168.118 310.853 157.67 313.767 152.193C316.994 146.133 320.007 138.772 325.716 140.92C331.232 142.986 332.672 148.503 331.418 154.463Z" fill="#364469"/>
<path d="M280.036 102.038C278.614 103.327 276.252 105.92 276.441 107.436C276.654 110.299 277.075 113.144 277.7 115.946C278.456 118.455 279.924 125.037 280.997 127.925C282.07 130.812 283.303 134.777 284.196 135.149C285.088 135.521 292.878 134.147 294.345 133.069C295.811 131.99 303.591 123.446 301.934 117.125C301.934 117.125 303.969 117.39 305.225 111.141C305.552 109.513 298.926 104.879 297.899 103.263C295.396 99.3364 286.265 102.427 283.654 102.63C282.416 102.855 281.138 102.646 280.036 102.038Z" fill="#FEC4AD"/>
<path d="M276.441 107.434C276.441 107.434 276.951 105.221 278.978 105.695C282 106.107 285.074 105.892 288.009 105.064C289.992 104.461 291.882 103.59 293.629 102.475C293.629 102.475 294.433 106.41 295.463 107.312C296.469 108.452 297.177 109.823 297.525 111.303C297.901 112.557 299.503 112.922 299.503 112.922C299.503 112.922 300.236 109.405 301.809 109.158C304.93 108.668 304.555 112.885 303.269 114.258C302.447 115.127 301.566 115.938 300.632 116.686C300.859 117.757 301.195 118.803 301.634 119.806C302.343 120.966 303.205 122.024 304.198 122.952C304.198 122.952 305.02 114.563 307.005 110.715C308.99 106.867 308.868 99.791 303.137 98.3011C303.137 98.3011 301.83 91.9102 294.3 92.2318C286.771 92.5534 280.758 95.5616 277.438 95.2414C275.947 95.2246 274.478 94.8819 273.134 94.2373C273.134 94.2373 271.476 99.6825 273.636 102.569C274.806 104.043 275.751 105.683 276.441 107.434Z" fill="#7B2B1A"/>
<path d="M368.83 266.334H361.791L354.753 221.421H360.104L368.83 266.334Z" fill="#A6AEBA"/>
<path d="M366.807 266.334H339.337L332.299 221.421H359.768L366.807 266.334Z" fill="#D2DCEB"/>
<path d="M368.828 265.316H338.969V268.667H368.828V265.316Z" fill="#D2DCEB"/>
<path d="M406.476 265.316H368.828V268.667H406.476V265.316Z" fill="#A6AEBA"/>
<path d="M351.721 246.062C352.516 249.502 351.957 253.214 350.471 254.356C348.986 255.497 347.137 253.638 346.343 250.201C345.549 246.764 346.107 243.049 347.592 241.907C349.078 240.766 350.927 242.625 351.721 246.062Z" fill="#A6AEBA"/>
<path d="M99.9397 275.514L438.056 275.514V269.014L99.9397 269.014V275.514Z" fill="#DBDBDB"/>
<path d="M136.021 405.149H139.277L165.868 275.514H159.132L136.021 405.149Z" fill="#DBDBDB"/>
<path d="M386.908 405.149H383.652L357.062 275.514H363.79L386.908 405.149Z" fill="#DBDBDB"/>
<path d="M412.59 83.3265H355.682V139.679H412.59V83.3265Z" fill="#9AEDFF"/>
<path d="M384.137 91.883H364.207V132.146H384.137V91.883Z" fill="white"/>
<path d="M412.59 72.5569H355.682V83.3265H412.59V72.5569Z" stroke="#E9F2F4" stroke-miterlimit="10"/>
<path d="M405.729 98.4585C405.729 99.8586 405.314 101.227 404.536 102.391C403.758 103.555 402.652 104.462 401.359 104.998C400.066 105.533 398.642 105.673 397.27 105.4C395.897 105.126 394.636 104.452 393.646 103.462C392.656 102.472 391.983 101.21 391.71 99.8369C391.437 98.4636 391.577 97.0403 392.113 95.7469C392.649 94.4536 393.557 93.3481 394.721 92.5705C395.885 91.7929 397.253 91.378 398.653 91.3783C399.582 91.3785 400.503 91.5617 401.361 91.9177C402.22 92.2736 403 92.7951 403.657 93.4526C404.314 94.1101 404.836 94.8905 405.191 95.7495C405.547 96.6084 405.73 97.5289 405.729 98.4585Z" fill="#43D0B1"/>
<path d="M398.093 101.244L394.819 97.0284L397.786 98.2686L404.609 92.2983L398.093 101.244Z" fill="white"/>
<path d="M398.653 126.542C402.562 126.542 405.731 123.373 405.731 119.463C405.731 115.554 402.562 112.384 398.653 112.384C394.744 112.384 391.575 115.554 391.575 119.463C391.575 123.373 394.744 126.542 398.653 126.542Z" fill="#43D0B1"/>
<path d="M398.093 122.249L394.819 118.033L397.786 119.273L404.609 113.303L398.093 122.249Z" fill="white"/>
<path d="M463.119 32.3184H453.318V52.9322H463.119V32.3184Z" fill="#52E6C6"/>
<path d="M477.475 40.0486H467.674V52.9322H477.475V40.0486Z" fill="#52E6C6"/>
<path d="M491.831 33.9344H482.031V52.9322H491.831V33.9344Z" fill="#52E6C6"/>
<path d="M506.189 19.3221H496.388V52.9322H506.189V19.3221Z" fill="#52E6C6"/>
<path d="M453.318 25.4403L463.119 22.0128L472.575 25.4403L501.287 2.33249" stroke="#99E6CF" stroke-miterlimit="10"/>
<path d="M443.747 60.6923H515.882V16.7738" stroke="#E9F2F4" stroke-width="0.25" stroke-miterlimit="10"/>
<defs>
<radialGradient id="paint0_radial" cx="0" cy="0" r="1" gradientUnits="userSpaceOnUse" gradientTransform="translate(293.254 350.043) rotate(-0.462131) scale(506.959 110.398)">
<stop offset="0.172" stop-color="#8595DD"/>
<stop offset="0.637" stop-color="#CBD2F0" stop-opacity="0.42"/>
<stop offset="0.989" stop-color="white" stop-opacity="0"/>
</radialGradient>
<linearGradient id="paint1_linear" x1="659.63" y1="171.586" x2="705.785" y2="171.216" gradientUnits="userSpaceOnUse">
<stop stop-color="#CBE2FC"/>
<stop offset="0.311" stop-color="#F4F9FE"/>
<stop offset="1" stop-color="#C7DDF3"/>
</linearGradient>
</defs>
</svg>
